<?xml version="1.0" encoding="UTF-8" standalone="no"?>
<!DOCTYPE svg PUBLIC "-//W3C//DTD SVG 1.1//EN" "http://www.w3.org/Graphics/SVG/1.1/DTD/svg11.dtd">
<svg version="1.1" xmlns="http://www.w3.org/2000/svg" xmlns:xl="http://www.w3.org/1999/xlink" xmlns:dc="http://purl.org/dc/elements/1.1/" viewBox="0 0 1e3 800" width="1000" height="800">
  <defs>
    <marker orient="auto" overflow="visible" markerUnits="strokeWidth" id="FilledArrow_Marker" stroke-linejoin="miter" stroke-miterlimit="10" viewBox="-1 -3 7 6" markerWidth="7" markerHeight="6" color="#3cae59">
      <g>
        <path d="M 4.8 0 L 0 -1.8 L 0 1.8 Z" fill="currentColor" stroke="currentColor" stroke-width="1"/>
      </g>
    </marker>
  </defs>
  <g id="Canvas_1" stroke-dasharray="none" fill="none" fill-opacity="1" stroke-opacity="1" stroke="none">
    <title>Canvas 1</title>
    <rect fill="white" x="0" y="0" width="1e3" height="800"/>
    <g id="Canvas_1_Layer_1">
      <title>Layer 1</title>
      <g id="Graphic_3">
        <title>Text</title>
        <text transform="translate(169.1621 17.69336)" fill="black">
          <tspan font-family="Arial" font-size="24" fill="black" x="0" y="22" xml:space="preserve">Donor Management System - OpenPetra Sponsorship Module</tspan>
        </text>
      </g>
      <g id="Graphic_4">
        <path d="M 60 70 L 940 70 C 945.5228 70 950 74.47715 950 80 L 950 715.5 C 950 721.02285 945.5228 725.5 940 725.5 L 60 725.5 C 54.47715 725.5 50 721.02285 50 715.5 L 50 80 C 50 74.47715 54.47715 70 60 70 Z" fill="#e9ecef"/>
        <path d="M 60 70 L 940 70 C 945.5228 70 950 74.47715 950 80 L 950 715.5 C 950 721.02285 945.5228 725.5 940 725.5 L 60 725.5 C 54.47715 725.5 50 721.02285 50 715.5 L 50 80 C 50 74.47715 54.47715 70 60 70 Z" stroke="#343a40" stroke-linecap="butt" stroke-linejoin="round" stroke-width="2"/>
      </g>
      <g id="Graphic_5">
        <path d="M 85 100 L 315 100 C 317.76142 100 320 102.23858 320 105 L 320 295 C 320 297.76142 317.76142 300 315 300 L 85 300 C 82.23858 300 80 297.76142 80 295 L 80 105 C 80 102.23858 82.23858 100 85 100 Z" fill="white"/>
        <path d="M 85 100 L 315 100 C 317.76142 100 320 102.23858 320 105 L 320 295 C 320 297.76142 317.76142 300 315 300 L 85 300 C 82.23858 300 80 297.76142 80 295 L 80 105 C 80 102.23858 82.23858 100 85 100 Z" stroke="#495057" stroke-linecap="butt" stroke-linejoin="round" stroke-width="2"/>
      </g>
      <g id="Graphic_6">
        <title>Text</title>
        <text transform="translate(115.45361 113.52002)" fill="black">
          <tspan font-family="Arial" font-size="18" fill="black" x="0" y="16" xml:space="preserve">Partner Management</tspan>
        </text>
      </g>
      <g id="Graphic_7">
        <path d="M 105 150 L 295 150 C 297.76142 150 300 152.23858 300 155 L 300 275 C 300 277.76142 297.76142 280 295 280 L 105 280 C 102.23858 280 100 277.76142 100 275 L 100 155 C 100 152.23858 102.23858 150 105 150 Z" fill="#e6f7ff"/>
        <path d="M 105 150 L 295 150 C 297.76142 150 300 152.23858 300 155 L 300 275 C 300 277.76142 297.76142 280 295 280 L 105 280 C 102.23858 280 100 277.76142 100 275 L 100 155 C 100 152.23858 102.23858 150 105 150 Z" stroke="#1890ff" stroke-linecap="butt" stroke-linejoin="round" stroke-width="1"/>
      </g>
      <g id="Graphic_8">
        <title>Text</title>
        <text transform="translate(129.19678 161.7378)" fill="black">
          <tspan font-family="Arial" font-size="14" fill="black" x="0" y="13" xml:space="preserve">Partner Master Record</tspan>
        </text>
      </g>
      <g id="Line_9">
        <line x1="150" y1="185" x2="250" y2="185" stroke="#1890ff" stroke-linecap="butt" stroke-linejoin="round" stroke-width="1"/>
      </g>
      <g id="Graphic_10">
        <title>Text</title>
        <text transform="translate(120 193.34668)" fill="black">
          <tspan font-family="Arial" font-size="12" fill="black" x="0" y="11" xml:space="preserve">• Personal Information</tspan>
        </text>
      </g>
      <g id="Graphic_11">
        <title>Text</title>
        <text transform="translate(120 213.34668)" fill="black">
          <tspan font-family="Arial" font-size="12" fill="black" x="0" y="11" xml:space="preserve">• Contact Details</tspan>
        </text>
      </g>
      <g id="Graphic_12">
        <title>Text</title>
        <text transform="translate(120 233.34668)" fill="black">
          <tspan font-family="Arial" font-size="12" fill="black" x="0" y="11" xml:space="preserve">• Communication Prefs</tspan>
        </text>
      </g>
      <g id="Graphic_13">
        <title>Text</title>
        <text transform="translate(120 253.34668)" fill="black">
          <tspan font-family="Arial" font-size="12" fill="black" x="0" y="11" xml:space="preserve">• Relationship Data</tspan>
        </text>
      </g>
      <g id="Graphic_14">
        <path d="M 385 100 L 875 100 C 877.7614 100 880 102.23858 880 105 L 880 395 C 880 397.76142 877.7614 400 875 400 L 385 400 C 382.23858 400 380 397.76142 380 395 L 380 105 C 380 102.23858 382.23858 100 385 100 Z" fill="white"/>
        <path d="M 385 100 L 875 100 C 877.7614 100 880 102.23858 880 105 L 880 395 C 880 397.76142 877.7614 400 875 400 L 385 400 C 382.23858 400 380 397.76142 380 395 L 380 105 C 380 102.23858 382.23858 100 385 100 Z" stroke="#495057" stroke-linecap="butt" stroke-linejoin="round" stroke-width="2"/>
      </g>
      <g id="Graphic_15">
        <title>Text</title>
        <text transform="translate(460.40625 113.52002)" fill="black">
          <tspan font-family="Arial" font-size="18" fill="black" x="0" y="16" xml:space="preserve">Sponsorship Module - Donor Management</tspan>
        </text>
      </g>
      <g id="Graphic_16">
        <path d="M 405 150 L 595 150 C 597.7614 150 600 152.23858 600 155 L 600 275 C 600 277.76142 597.7614 280 595 280 L 405 280 C 402.2386 280 400 277.76142 400 275 L 400 155 C 400 152.23858 402.2386 150 405 150 Z" fill="#fff0f6"/>
        <path d="M 405 150 L 595 150 C 597.7614 150 600 152.23858 600 155 L 600 275 C 600 277.76142 597.7614 280 595 280 L 405 280 C 402.2386 280 400 277.76142 400 275 L 400 155 C 400 152.23858 402.2386 150 405 150 Z" stroke="#eb2f96" stroke-linecap="butt" stroke-linejoin="round" stroke-width="1"/>
      </g>
      <g id="Graphic_17">
        <title>Text</title>
        <text transform="translate(459.14844 161.7378)" fill="black">
          <tspan font-family="Arial" font-size="14" fill="black" x="0" y="13" xml:space="preserve">Donor Profile</tspan>
        </text>
      </g>
      <g id="Line_18">
        <line x1="450" y1="185" x2="550" y2="185" stroke="#eb2f96" stroke-linecap="butt" stroke-linejoin="round" stroke-width="1"/>
      </g>
      <g id="Graphic_19">
        <title>Text</title>
        <text transform="translate(420 193.34668)" fill="black">
          <tspan font-family="Arial" font-size="12" fill="black" x="0" y="11" xml:space="preserve">• Giving History</tspan>
        </text>
      </g>
      <g id="Graphic_20">
        <title>Text</title>
        <text transform="translate(420 213.34668)" fill="black">
          <tspan font-family="Arial" font-size="12" fill="black" x="0" y="11" xml:space="preserve">• Preferences</tspan>
        </text>
      </g>
      <g id="Graphic_21">
        <title>Text</title>
        <text transform="translate(420 233.34668)" fill="black">
          <tspan font-family="Arial" font-size="12" fill="black" x="0" y="11" xml:space="preserve">• Sponsorship Details</tspan>
        </text>
      </g>
      <g id="Graphic_22">
        <title>Text</title>
        <text transform="translate(420 253.34668)" fill="black">
          <tspan font-family="Arial" font-size="12" fill="black" x="0" y="11" xml:space="preserve">• Tax Status</tspan>
        </text>
      </g>
      <g id="Graphic_23">
        <path d="M 655 150 L 845 150 C 847.7614 150 850 152.23858 850 155 L 850 275 C 850 277.76142 847.7614 280 845 280 L 655 280 C 652.2386 280 650 277.76142 650 275 L 650 155 C 650 152.23858 652.2386 150 655 150 Z" fill="#f6ffed"/>
        <path d="M 655 150 L 845 150 C 847.7614 150 850 152.23858 850 155 L 850 275 C 850 277.76142 847.7614 280 845 280 L 655 280 C 652.2386 280 650 277.76142 650 275 L 650 155 C 650 152.23858 652.2386 150 655 150 Z" stroke="#52c41a" stroke-linecap="butt" stroke-linejoin="round" stroke-width="1"/>
      </g>
      <g id="Graphic_24">
        <title>Text</title>
        <text transform="translate(702.5381 161.7378)" fill="black">
          <tspan font-family="Arial" font-size="14" fill="black" x="0" y="13" xml:space="preserve">Gift Processing</tspan>
        </text>
      </g>
      <g id="Line_25">
        <line x1="700" y1="185" x2="800" y2="185" stroke="#52c41a" stroke-linecap="butt" stroke-linejoin="round" stroke-width="1"/>
      </g>
      <g id="Graphic_26">
        <title>Text</title>
        <text transform="translate(670 193.34668)" fill="black">
          <tspan font-family="Arial" font-size="12" fill="black" x="0" y="11" xml:space="preserve">• Donation Capture</tspan>
        </text>
      </g>
      <g id="Graphic_27">
        <title>Text</title>
        <text transform="translate(670 213.34668)" fill="black">
          <tspan font-family="Arial" font-size="12" fill="black" x="0" y="11" xml:space="preserve">• Receipt Generation</tspan>
        </text>
      </g>
      <g id="Graphic_28">
        <title>Text</title>
        <text transform="translate(670 233.34668)" fill="black">
          <tspan font-family="Arial" font-size="12" fill="black" x="0" y="11" xml:space="preserve">• Recurring Gifts</tspan>
        </text>
      </g>
      <g id="Graphic_29">
        <title>Text</title>
        <text transform="translate(670 253.34668)" fill="black">
          <tspan font-family="Arial" font-size="12" fill="black" x="0" y="11" xml:space="preserve">• Gift Designation</tspan>
        </text>
      </g>
      <g id="Graphic_38">
        <path d="M 85 320 L 315 320 C 317.76142 320 320 322.23858 320 325 L 320 595 C 320 597.7614 317.76142 600 315 600 L 85 600 C 82.23858 600 80 597.7614 80 595 L 80 325 C 80 322.23858 82.23858 320 85 320 Z" fill="white"/>
        <path d="M 85 320 L 315 320 C 317.76142 320 320 322.23858 320 325 L 320 595 C 320 597.7614 317.76142 600 315 600 L 85 600 C 82.23858 600 80 597.7614 80 595 L 80 325 C 80 322.23858 82.23858 320 85 320 Z" stroke="#495057" stroke-linecap="butt" stroke-linejoin="round" stroke-width="2"/>
      </g>
      <g id="Graphic_39">
        <title>Text</title>
        <text transform="translate(135.96289 333.52)" fill="black">
          <tspan font-family="Arial" font-size="18" fill="black" x="0" y="16" xml:space="preserve">Finance Module</tspan>
        </text>
      </g>
      <g id="Graphic_40">
        <path d="M 105 370 L 295 370 C 297.76142 370 300 372.23858 300 375 L 300 445 C 300 447.7614 297.76142 450 295 450 L 105 450 C 102.23858 450 100 447.7614 100 445 L 100 375 C 100 372.23858 102.23858 370 105 370 Z" fill="#e6fffb"/>
        <path d="M 105 370 L 295 370 C 297.76142 370 300 372.23858 300 375 L 300 445 C 300 447.7614 297.76142 450 295 450 L 105 450 C 102.23858 450 100 447.7614 100 445 L 100 375 C 100 372.23858 102.23858 370 105 370 Z" stroke="#13c2c2" stroke-linecap="butt" stroke-linejoin="round" stroke-width="1"/>
      </g>
      <g id="Graphic_41">
        <title>Text</title>
        <text transform="translate(151.35547 381.7378)" fill="black">
          <tspan font-family="Arial" font-size="14" fill="black" x="0" y="13" xml:space="preserve">General Ledger</tspan>
        </text>
      </g>
      <g id="Line_42">
        <line x1="150" y1="405" x2="250" y2="405" stroke="#13c2c2" stroke-linecap="butt" stroke-linejoin="round" stroke-width="1"/>
      </g>
      <g id="Graphic_43">
        <title>Text</title>
        <text transform="translate(120 413.3467)" fill="black">
          <tspan font-family="Arial" font-size="12" fill="black" x="0" y="11" xml:space="preserve">• Gift Batch Processing</tspan>
        </text>
      </g>
      <g id="Graphic_48">
        <path d="M 105 570 L 295 570 C 297.76142 570 300 572.2386 300 575 L 300 645 C 300 647.7614 297.76142 650 295 650 L 105 650 C 102.23858 650 100 647.7614 100 645 L 100 575 C 100 572.2386 102.23858 570 105 570 Z" fill="#fff1f0"/>
        <path d="M 105 570 L 295 570 C 297.76142 570 300 572.2386 300 575 L 300 645 C 300 647.7614 297.76142 650 295 650 L 105 650 C 102.23858 650 100 647.7614 100 645 L 100 575 C 100 572.2386 102.23858 570 105 570 Z" stroke="#f5222d" stroke-linecap="butt" stroke-linejoin="round" stroke-width="1"/>
      </g>
      <g id="Graphic_49">
        <title>Text</title>
        <text transform="translate(154.08643 581.7378)" fill="black">
          <tspan font-family="Arial" font-size="14" fill="black" x="0" y="13" xml:space="preserve">Tax Receipting</tspan>
        </text>
      </g>
      <g id="Line_50">
        <line x1="150" y1="605" x2="250" y2="605" stroke="#f5222d" stroke-linecap="butt" stroke-linejoin="round" stroke-width="1"/>
      </g>
      <g id="Graphic_51">
        <title>Text</title>
        <text transform="translate(120 613.3467)" fill="black">
          <tspan font-family="Arial" font-size="12" fill="black" x="0" y="11" xml:space="preserve">• Tax-Deductible Gift Tracking</tspan>
        </text>
      </g>
      <g id="Graphic_52">
        <path d="M 385 420 L 875 420 C 877.7614 420 880 422.2386 880 425 L 880 695 C 880 697.7614 877.7614 700 875 700 L 385 700 C 382.23858 700 380 697.7614 380 695 L 380 425 C 380 422.2386 382.23858 420 385 420 Z" fill="white"/>
        <path d="M 385 420 L 875 420 C 877.7614 420 880 422.2386 880 425 L 880 695 C 880 697.7614 877.7614 700 875 700 L 385 700 C 382.23858 700 380 697.7614 380 695 L 380 425 C 380 422.2386 382.23858 420 385 420 Z" stroke="#495057" stroke-linecap="butt" stroke-linejoin="round" stroke-width="2"/>
      </g>
      <g id="Graphic_53">
        <title>Text</title>
        <text transform="translate(558.958 433.52)" fill="black">
          <tspan font-family="Arial" font-size="18" fill="black" x="0" y="16" xml:space="preserve">Reporting Module</tspan>
        </text>
      </g>
      <g id="Graphic_54">
        <path d="M 405 470 L 595 470 C 597.7614 470 600 472.2386 600 475 L 600 545 C 600 547.7614 597.7614 550 595 550 L 405 550 C 402.2386 550 400 547.7614 400 545 L 400 475 C 400 472.2386 402.2386 470 405 470 Z" fill="#f4ffb8"/>
        <path d="M 405 470 L 595 470 C 597.7614 470 600 472.2386 600 475 L 600 545 C 600 547.7614 597.7614 550 595 550 L 405 550 C 402.2386 550 400 547.7614 400 545 L 400 475 C 400 472.2386 402.2386 470 405 470 Z" stroke="#fadb14" stroke-linecap="butt" stroke-linejoin="round" stroke-width="1"/>
      </g>
      <g id="Graphic_55">
        <title>Text</title>
        <text transform="translate(454.4795 481.7378)" fill="black">
          <tspan font-family="Arial" font-size="14" fill="black" x="0" y="13" xml:space="preserve">Donor Reports</tspan>
        </text>
      </g>
      <g id="Line_56">
        <line x1="450" y1="505" x2="550" y2="505" stroke="#fadb14" stroke-linecap="butt" stroke-linejoin="round" stroke-width="1"/>
      </g>
      <g id="Graphic_57">
        <title>Text</title>
        <text transform="translate(420 513.3467)" fill="black">
          <tspan font-family="Arial" font-size="12" fill="black" x="0" y="11" xml:space="preserve">• Giving History</tspan>
        </text>
      </g>
      <g id="Graphic_58">
        <path d="M 655 470 L 845 470 C 847.7614 470 850 472.2386 850 475 L 850 545 C 850 547.7614 847.7614 550 845 550 L 655 550 C 652.2386 550 650 547.7614 650 545 L 650 475 C 650 472.2386 652.2386 470 655 470 Z" fill="#eaeaff"/>
        <path d="M 655 470 L 845 470 C 847.7614 470 850 472.2386 850 475 L 850 545 C 850 547.7614 847.7614 550 845 550 L 655 550 C 652.2386 550 650 547.7614 650 545 L 650 475 C 650 472.2386 652.2386 470 655 470 Z" stroke="#2f54eb" stroke-linecap="butt" stroke-linejoin="round" stroke-width="1"/>
      </g>
      <g id="Graphic_59">
        <title>Text</title>
        <text transform="translate(695.53125 481.7378)" fill="black">
          <tspan font-family="Arial" font-size="14" fill="black" x="0" y="13" xml:space="preserve">Financial Reports</tspan>
        </text>
      </g>
      <g id="Line_60">
        <line x1="700" y1="505" x2="800" y2="505" stroke="#2f54eb" stroke-linecap="butt" stroke-linejoin="round" stroke-width="1"/>
      </g>
      <g id="Graphic_61">
        <title>Text</title>
        <text transform="translate(670 513.3467)" fill="black">
          <tspan font-family="Arial" font-size="12" fill="black" x="0" y="11" xml:space="preserve">• Program Funding Analysis</tspan>
        </text>
      </g>
      <g id="Graphic_62">
        <path d="M 405 570 L 595 570 C 597.7614 570 600 572.2386 600 575 L 600 645 C 600 647.7614 597.7614 650 595 650 L 405 650 C 402.2386 650 400 647.7614 400 645 L 400 575 C 400 572.2386 402.2386 570 405 570 Z" fill="#ffe6e6"/>
        <path d="M 405 570 L 595 570 C 597.7614 570 600 572.2386 600 575 L 600 645 C 600 647.7614 597.7614 650 595 650 L 405 650 C 402.2386 650 400 647.7614 400 645 L 400 575 C 400 572.2386 402.2386 570 405 570 Z" stroke="#f5222d" stroke-linecap="butt" stroke-linejoin="round" stroke-width="1"/>
      </g>
      <g id="Graphic_63">
        <title>Text</title>
        <text transform="translate(435.0244 581.7378)" fill="black">
          <tspan font-family="Arial" font-size="14" fill="black" x="0" y="13" xml:space="preserve">Stewardship Reports</tspan>
        </text>
      </g>
      <g id="Line_64">
        <line x1="450" y1="605" x2="550" y2="605" stroke="#f5222d" stroke-linecap="butt" stroke-linejoin="round" stroke-width="1"/>
      </g>
      <g id="Graphic_65">
        <title>Text</title>
        <text transform="translate(420 613.3467)" fill="black">
          <tspan font-family="Arial" font-size="12" fill="black" x="0" y="11" xml:space="preserve">• Donor Engagement Metrics</tspan>
        </text>
      </g>
      <g id="Graphic_66">
        <path d="M 655 570 L 845 570 C 847.7614 570 850 572.2386 850 575 L 850 645 C 850 647.7614 847.7614 650 845 650 L 655 650 C 652.2386 650 650 647.7614 650 645 L 650 575 C 650 572.2386 652.2386 570 655 570 Z" fill="#ffdbca"/>
        <path d="M 655 570 L 845 570 C 847.7614 570 850 572.2386 850 575 L 850 645 C 850 647.7614 847.7614 650 845 650 L 655 650 C 652.2386 650 650 647.7614 650 645 L 650 575 C 650 572.2386 652.2386 570 655 570 Z" stroke="#fa541c" stroke-linecap="butt" stroke-linejoin="round" stroke-width="1"/>
      </g>
      <g id="Graphic_67">
        <title>Text</title>
        <text transform="translate(701.3657 581.7378)" fill="black">
          <tspan font-family="Arial" font-size="14" fill="black" x="0" y="13" xml:space="preserve">Donor Analytics</tspan>
        </text>
      </g>
      <g id="Line_68">
        <line x1="700" y1="605" x2="800" y2="605" stroke="#fa541c" stroke-linecap="butt" stroke-linejoin="round" stroke-width="1"/>
      </g>
      <g id="Graphic_69">
        <title>Text</title>
        <text transform="translate(670 613.3467)" fill="black">
          <tspan font-family="Arial" font-size="12" fill="black" x="0" y="11" xml:space="preserve">• Giving Patterns &amp; Trends</tspan>
        </text>
      </g>
      <g id="Graphic_70">
        <title>Text</title>
        <text transform="translate(80 668.3467)" fill="#6c757d">
          <tspan font-family="Arial" font-size="12" fill="#6c757d" x="0" y="11" xml:space="preserve">OpenPetra Non-Profit Management System</tspan>
        </text>
      </g>
      <g id="Graphic_71">
        <path d="M 320 200 C 350 200 370 200 400 200" stroke="#666" stroke-linecap="butt" stroke-linejoin="round" stroke-width="2"/>
      </g>
      <g id="Graphic_72">
        <path d="M 395 195 L 405 200 L 395 205 Z" fill="#666"/>
      </g>
      <g id="Graphic_73">
        <line x1="200" y1="300" x2="200" y2="370" stroke="#666" stroke-linecap="butt" stroke-linejoin="round" stroke-width="2"/>
      </g>
      <g id="Graphic_74">
        <path d="M 195 365 L 200 375 L 205 365 Z" fill="#666"/>
      </g>
      <g id="Graphic_77">
        <line x1="500" y1="280" x2="500" y2="300" stroke="#666" stroke-linecap="butt" stroke-linejoin="round" stroke-width="2"/>
      </g>
      <g id="Graphic_78">
        <path d="M 495 295 L 500 305 L 505 295 Z" fill="#666"/>
      </g>
      <g id="Graphic_79">
        <line x1="750" y1="280" x2="750" y2="300" stroke="#666" stroke-linecap="butt" stroke-linejoin="round" stroke-width="2"/>
      </g>
      <g id="Graphic_80">
        <path d="M 745 295 L 750 305 L 755 295 Z" fill="#666"/>
      </g>
      <g id="Graphic_81">
        <line x1="200" y1="450" x2="200" y2="570" stroke="#666" stroke-linecap="butt" stroke-linejoin="round" stroke-width="2"/>
      </g>
      <g id="Graphic_82">
        <path d="M 195 565 L 200 575 L 205 565 Z" fill="#666"/>
      </g>
      <g id="Graphic_83">
        <path d="M 500 340 C 500 400 500 440 500 470" stroke="#666" stroke-linecap="butt" stroke-linejoin="round" stroke-width="2"/>
      </g>
      <g id="Graphic_84">
        <path d="M 495 465 L 500 475 L 505 465 Z" fill="#666"/>
      </g>
      <g id="Graphic_85">
        <path d="M 750 280 C 750 350 750 420 750 470" stroke="#666" stroke-linecap="butt" stroke-linejoin="round" stroke-width="2"/>
      </g>
      <g id="Graphic_86">
        <path d="M 745 465 L 750 475 L 755 465 Z" fill="#666"/>
      </g>
      <g id="Graphic_87">
        <line x1="300" y1="610" x2="400" y2="610" stroke="#666" stroke-linecap="butt" stroke-linejoin="round" stroke-width="2"/>
      </g>
      <g id="Graphic_88">
        <path d="M 395 605 L 405 610 L 395 615 Z" fill="#666"/>
      </g>
      <g id="Graphic_89">
        <line x1="600" y1="510" x2="650" y2="510" stroke="#666" stroke-linecap="butt" stroke-linejoin="round" stroke-width="2"/>
      </g>
      <g id="Graphic_90">
        <path d="M 645 505 L 655 510 L 645 515 Z" fill="#666"/>
      </g>
      <g id="Group_105">
        <g id="Graphic_91">
          <path d="M 157.08643 745.0859 L 171.08643 745.0859 C 172.74328 745.0859 174.08643 746.4291 174.08643 748.0859 L 174.08643 762.0859 C 174.08643 763.7428 172.74328 765.0859 171.08643 765.0859 L 157.08643 765.0859 C 155.42957 765.0859 154.08643 763.7428 154.08643 762.0859 L 154.08643 748.0859 C 154.08643 746.4291 155.42957 745.0859 157.08643 745.0859 Z" fill="#e6f7ff"/>
          <path d="M 157.08643 745.0859 L 171.08643 745.0859 C 172.74328 745.0859 174.08643 746.4291 174.08643 748.0859 L 174.08643 762.0859 C 174.08643 763.7428 172.74328 765.0859 171.08643 765.0859 L 157.08643 765.0859 C 155.42957 765.0859 154.08643 763.7428 154.08643 762.0859 L 154.08643 748.0859 C 154.08643 746.4291 155.42957 745.0859 157.08643 745.0859 Z" stroke="#1890ff" stroke-linecap="butt" stroke-linejoin="round" stroke-width="1"/>
        </g>
        <g id="Graphic_92">
          <title>Text</title>
          <text transform="translate(184.08643 748.4326)" fill="black">
            <tspan font-family="Arial" font-size="12" fill="black" x="0" y="11" xml:space="preserve">Partner Data</tspan>
          </text>
        </g>
        <g id="Graphic_93">
          <path d="M 277.08643 745.0859 L 291.08643 745.0859 C 292.74328 745.0859 294.08643 746.4291 294.08643 748.0859 L 294.08643 762.0859 C 294.08643 763.7428 292.74328 765.0859 291.08643 765.0859 L 277.08643 765.0859 C 275.42957 765.0859 274.08643 763.7428 274.08643 762.0859 L 274.08643 748.0859 C 274.08643 746.4291 275.42957 745.0859 277.08643 745.0859 Z" fill="#fff0f6"/>
          <path d="M 277.08643 745.0859 L 291.08643 745.0859 C 292.74328 745.0859 294.08643 746.4291 294.08643 748.0859 L 294.08643 762.0859 C 294.08643 763.7428 292.74328 765.0859 291.08643 765.0859 L 277.08643 765.0859 C 275.42957 765.0859 274.08643 763.7428 274.08643 762.0859 L 274.08643 748.0859 C 274.08643 746.4291 275.42957 745.0859 277.08643 745.0859 Z" stroke="#eb2f96" stroke-linecap="butt" stroke-linejoin="round" stroke-width="1"/>
        </g>
        <g id="Graphic_94">
          <title>Text</title>
          <text transform="translate(304.08643 748.4326)" fill="black">
            <tspan font-family="Arial" font-size="12" fill="black" x="0" y="11" xml:space="preserve">Donor Management</tspan>
          </text>
        </g>
        <g id="Graphic_95">
          <path d="M 457.0864 745.0859 L 471.0864 745.0859 C 472.7433 745.0859 474.0864 746.4291 474.0864 748.0859 L 474.0864 762.0859 C 474.0864 763.7428 472.7433 765.0859 471.0864 765.0859 L 457.0864 765.0859 C 455.42957 765.0859 454.0864 763.7428 454.0864 762.0859 L 454.0864 748.0859 C 454.0864 746.4291 455.42957 745.0859 457.0864 745.0859 Z" fill="#f6ffed"/>
          <path d="M 457.0864 745.0859 L 471.0864 745.0859 C 472.7433 745.0859 474.0864 746.4291 474.0864 748.0859 L 474.0864 762.0859 C 474.0864 763.7428 472.7433 765.0859 471.0864 765.0859 L 457.0864 765.0859 C 455.42957 765.0859 454.0864 763.7428 454.0864 762.0859 L 454.0864 748.0859 C 454.0864 746.4291 455.42957 745.0859 457.0864 745.0859 Z" stroke="#52c41a" stroke-linecap="butt" stroke-linejoin="round" stroke-width="1"/>
        </g>
        <g id="Graphic_96">
          <title>Text</title>
          <text transform="translate(484.0864 748.4326)" fill="black">
            <tspan font-family="Arial" font-size="12" fill="black" x="0" y="11" xml:space="preserve">Gift Processing</tspan>
          </text>
        </g>
        <g id="Graphic_97">
          <path d="M 597.0864 745.0859 L 611.0864 745.0859 C 612.7433 745.0859 614.0864 746.4291 614.0864 748.0859 L 614.0864 762.0859 C 614.0864 763.7428 612.7433 765.0859 611.0864 765.0859 L 597.0864 765.0859 C 595.4296 765.0859 594.0864 763.7428 594.0864 762.0859 L 594.0864 748.0859 C 594.0864 746.4291 595.4296 745.0859 597.0864 745.0859 Z" fill="#e6fffb"/>
          <path d="M 597.0864 745.0859 L 611.0864 745.0859 C 612.7433 745.0859 614.0864 746.4291 614.0864 748.0859 L 614.0864 762.0859 C 614.0864 763.7428 612.7433 765.0859 611.0864 765.0859 L 597.0864 765.0859 C 595.4296 765.0859 594.0864 763.7428 594.0864 762.0859 L 594.0864 748.0859 C 594.0864 746.4291 595.4296 745.0859 597.0864 745.0859 Z" stroke="#13c2c2" stroke-linecap="butt" stroke-linejoin="round" stroke-width="1"/>
        </g>
        <g id="Graphic_98">
          <title>Text</title>
          <text transform="translate(624.0864 748.4326)" fill="black">
            <tspan font-family="Arial" font-size="12" fill="black" x="0" y="11" xml:space="preserve">Financial Functions</tspan>
          </text>
        </g>
        <g id="Graphic_99">
          <path d="M 777.0864 745.0859 L 791.0864 745.0859 C 792.7433 745.0859 794.0864 746.4291 794.0864 748.0859 L 794.0864 762.0859 C 794.0864 763.7428 792.7433 765.0859 791.0864 765.0859 L 777.0864 765.0859 C 775.4296 765.0859 774.0864 763.7428 774.0864 762.0859 L 774.0864 748.0859 C 774.0864 746.4291 775.4296 745.0859 777.0864 745.0859 Z" fill="#f4ffb8"/>
          <path d="M 777.0864 745.0859 L 791.0864 745.0859 C 792.7433 745.0859 794.0864 746.4291 794.0864 748.0859 L 794.0864 762.0859 C 794.0864 763.7428 792.7433 765.0859 791.0864 765.0859 L 777.0864 765.0859 C 775.4296 765.0859 774.0864 763.7428 774.0864 762.0859 L 774.0864 748.0859 C 774.0864 746.4291 775.4296 745.0859 777.0864 745.0859 Z" stroke="#fadb14" stroke-linecap="butt" stroke-linejoin="round" stroke-width="1"/>
        </g>
        <g id="Graphic_100">
          <title>Text</title>
          <text transform="translate(804.0864 748.4326)" fill="black">
            <tspan font-family="Arial" font-size="12" fill="black" x="0" y="11" xml:space="preserve">Reporting</tspan>
          </text>
        </g>
      </g>
      <g id="Graphic_30">
        <path d="M 405 300 L 595 300 C 597.7614 300 600 302.23858 600 305 L 600 375 C 600 377.76142 597.7614 380 595 380 L 405 380 C 402.2386 380 400 377.76142 400 375 L 400 305 C 400 302.23858 402.2386 300 405 300 Z" fill="#f9f0ff"/>
        <path d="M 405 300 L 595 300 C 597.7614 300 600 302.23858 600 305 L 600 375 C 600 377.76142 597.7614 380 595 380 L 405 380 C 402.2386 380 400 377.76142 400 375 L 400 305 C 400 302.23858 402.2386 300 405 300 Z" stroke="#722ed1" stroke-linecap="butt" stroke-linejoin="round" stroke-width="1"/>
      </g>
      <g id="Graphic_31">
        <title>Text</title>
        <text transform="translate(430.7383 311.7378)" fill="black">
          <tspan font-family="Arial" font-size="14" fill="black" x="0" y="13" xml:space="preserve">Sponsorship Matching</tspan>
        </text>
      </g>
      <g id="Line_32">
        <line x1="450" y1="335" x2="550" y2="335" stroke="#722ed1" stroke-linecap="butt" stroke-linejoin="round" stroke-width="1"/>
      </g>
      <g id="Graphic_33">
        <title>Text</title>
        <text transform="translate(420 343.3467)" fill="black">
          <tspan font-family="Arial" font-size="12" fill="black" x="0" y="11" xml:space="preserve">• Donor-Child Matching</tspan>
        </text>
      </g>
      <g id="Group_101">
        <g id="Graphic_34">
          <path d="M 655 300 L 845 300 C 847.7614 300 850 302.23858 850 305 L 850 375 C 850 377.76142 847.7614 380 845 380 L 655 380 C 652.2386 380 650 377.76142 650 375 L 650 305 C 650 302.23858 652.2386 300 655 300 Z" fill="#fff2e8"/>
          <path d="M 655 300 L 845 300 C 847.7614 300 850 302.23858 850 305 L 850 375 C 850 377.76142 847.7614 380 845 380 L 655 380 C 652.2386 380 650 377.76142 650 375 L 650 305 C 650 302.23858 652.2386 300 655 300 Z" stroke="#fa8c16" stroke-linecap="butt" stroke-linejoin="round" stroke-width="1"/>
        </g>
        <g id="Graphic_35">
          <title>Text</title>
          <text transform="translate(676.8589 311.7378)" fill="black">
            <tspan font-family="Arial" font-size="14" fill="black" x="0" y="13" xml:space="preserve">Donor Communications</tspan>
          </text>
        </g>
        <g id="Line_36">
          <line x1="700" y1="335" x2="800" y2="335" stroke="#fa8c16" stroke-linecap="butt" stroke-linejoin="round" stroke-width="1"/>
        </g>
        <g id="Graphic_37">
          <title>Text</title>
          <text transform="translate(670 343.3467)" fill="black">
            <tspan font-family="Arial" font-size="12" fill="black" x="0" y="11" xml:space="preserve">• Thank You Letters</tspan>
          </text>
        </g>
      </g>
      <g id="Graphic_103">
        <rect x="495.43646" y="407.1457" width="10" height="5" fill="#eaecf1"/>
      </g>
      <g id="Line_102">
        <path d="M 650 213.83438 L 625 213.54297 L 624 409.5 L 312.9 409.86686" marker-end="url(#FilledArrow_Marker)" stroke="#3cae59" stroke-linecap="round" stroke-linejoin="round" stroke-width="2"/>
      </g>
      <g id="Group_106">
        <g id="Graphic_44">
          <path d="M 105 470 L 295 470 C 297.76142 470 300 472.2386 300 475 L 300 545 C 300 547.7614 297.76142 550 295 550 L 105 550 C 102.23858 550 100 547.7614 100 545 L 100 475 C 100 472.2386 102.23858 470 105 470 Z" fill="#fcffe6"/>
          <path d="M 105 470 L 295 470 C 297.76142 470 300 472.2386 300 475 L 300 545 C 300 547.7614 297.76142 550 295 550 L 105 550 C 102.23858 550 100 547.7614 100 545 L 100 475 C 100 472.2386 102.23858 470 105 470 Z" stroke="#a0d911" stroke-linecap="butt" stroke-linejoin="round" stroke-width="1"/>
        </g>
        <g id="Graphic_45">
          <title>Text</title>
          <text transform="translate(128.03125 481.7378)" fill="black">
            <tspan font-family="Arial" font-size="14" fill="black" x="0" y="13" xml:space="preserve">Multi-Currency Support</tspan>
          </text>
        </g>
        <g id="Line_46">
          <line x1="150" y1="505" x2="250" y2="505" stroke="#a0d911" stroke-linecap="butt" stroke-linejoin="round" stroke-width="1"/>
        </g>
        <g id="Graphic_47">
          <title>Text</title>
          <text transform="translate(120 513.3467)" fill="black">
            <tspan font-family="Arial" font-size="12" fill="black" x="0" y="11" xml:space="preserve">• Exchange Rate Management</tspan>
          </text>
        </g>
      </g>
    </g>
  </g>
</svg>
