<?xml version="1.0" encoding="UTF-8" standalone="no"?>
<!DOCTYPE svg PUBLIC "-//W3C//DTD SVG 1.1//EN" "http://www.w3.org/Graphics/SVG/1.1/DTD/svg11.dtd">
<svg xmlns:dc="http://purl.org/dc/elements/1.1/" version="1.1" xmlns:xl="http://www.w3.org/1999/xlink" xmlns="http://www.w3.org/2000/svg" viewBox="0 0 1200 900" width="1200" height="900">
  <defs/>
  <g id="Canvas_1" stroke-dasharray="none" fill="none" fill-opacity="1" stroke="none" stroke-opacity="1">
    <title>Canvas 1</title>
    <rect fill="white" x="0" y="0" width="1200" height="900"/>
    <g id="Canvas_1_Layer_1">
      <title>Layer 1</title>
      <g id="Graphic_2">
        <rect x="0" y="0" width="1200" height="900" fill="#f8f9fa"/>
      </g>
      <g id="Graphic_3">
        <title>Text</title>
        <text transform="translate(391.21875 17.69336)" fill="black">
          <tspan font-family="Arial" font-size="24" fill="black" x="0" y="22" xml:space="preserve">OpenPetra Business Logic Architecture</tspan>
        </text>
      </g>
      <g id="Graphic_4">
        <path d="M 105 80 L 1095 80 C 1097.7614 80 1100 82.23858 1100 85 L 1100 145 C 1100 147.76142 1097.7614 150 1095 150 L 105 150 C 102.23858 150 100 147.76142 100 145 L 100 85 C 100 82.23858 102.23858 80 105 80 Z" fill="#e2f0fb"/>
        <path d="M 105 80 L 1095 80 C 1097.7614 80 1100 82.23858 1100 85 L 1100 145 C 1100 147.76142 1097.7614 150 1095 150 L 105 150 C 102.23858 150 100 147.76142 100 145 L 100 85 C 100 82.23858 102.23858 80 105 80 Z" stroke="#3498db" stroke-linecap="butt" stroke-linejoin="round" stroke-width="2"/>
      </g>
      <g id="Graphic_5">
        <title>Text</title>
        <text transform="translate(508.9663 118.68896)" fill="black">
          <tspan font-family="Arial" font-weight="bold" font-size="18" fill="black" x="0" y="16" xml:space="preserve">Client Interface Layer</tspan>
        </text>
      </g>
      <g id="Graphic_6">
        <title>Text</title>
        <text transform="translate(420.0132 91.73779)" fill="black">
          <tspan font-family="Arial" font-size="14" fill="black" x="0" y="13" xml:space="preserve">(Angular UI, Web Services, Client-Server Communication)</tspan>
        </text>
      </g>
      <g id="Graphic_7">
        <path d="M 105 170 L 1095 170 C 1097.7614 170 1100 172.23858 1100 175 L 1100 765 C 1100 767.7614 1097.7614 770 1095 770 L 105 770 C 102.23858 770 100 767.7614 100 765 L 100 175 C 100 172.23858 102.23858 170 105 170 Z" stroke="#3498db" stroke-linecap="butt" stroke-linejoin="round" stroke-dasharray="8.0,8.0" stroke-width="2"/>
      </g>
      <g id="Graphic_8">
        <title>Text</title>
        <text transform="translate(170 181.91113)" fill="#3498db">
          <tspan font-family="Arial" font-size="20" fill="#3498db" x="0" y="18" xml:space="preserve">Business Logic Layer</tspan>
        </text>
      </g>
      <g id="Graphic_9">
        <path d="M 125 220 L 1075 220 C 1077.7614 220 1080 222.23858 1080 225 L 1080 315 C 1080 317.76142 1077.7614 320 1075 320 L 125 320 C 122.23858 320 120 317.76142 120 315 L 120 225 C 120 222.23858 122.23858 220 125 220 Z" fill="#ffe0b2"/>
        <path d="M 125 220 L 1075 220 C 1077.7614 220 1080 222.23858 1080 225 L 1080 315 C 1080 317.76142 1077.7614 320 1075 320 L 125 320 C 122.23858 320 120 317.76142 120 315 L 120 225 C 120 222.23858 122.23858 220 125 220 Z" stroke="#ff9800" stroke-linecap="butt" stroke-linejoin="round" stroke-width="2"/>
      </g>
      <g id="Graphic_10">
        <title>Text</title>
        <text transform="translate(514.478 229.22217)" fill="black">
          <tspan font-family="Arial" font-weight="bold" font-size="18" fill="black" x="0" y="16" xml:space="preserve">Event Infrastructure</tspan>
        </text>
      </g>
      <g id="Graphic_11">
        <title>Text</title>
        <text transform="translate(422.9458 266.9497)" fill="black">
          <tspan font-family="Arial" font-size="14" fill="black" x="0" y="13" xml:space="preserve">Event Handling, Pub/Sub Messaging, State Management</tspan>
        </text>
      </g>
      <g id="Graphic_12">
        <title>Text</title>
        <text transform="translate(524.0117 291.7378)" fill="black">
          <tspan font-family="Arial" font-size="14" fill="black" x="0" y="13" xml:space="preserve">(Waf.Event Namespace)</tspan>
        </text>
      </g>
      <g id="Graphic_13">
        <path d="M 125 340 L 415 340 C 417.7614 340 420 342.23858 420 345 L 420 505 C 420 507.7614 417.7614 510 415 510 L 125 510 C 122.23858 510 120 507.7614 120 505 L 120 345 C 120 342.23858 122.23858 340 125 340 Z" fill="#d1f2eb"/>
        <path d="M 125 340 L 415 340 C 417.7614 340 420 342.23858 420 345 L 420 505 C 420 507.7614 417.7614 510 415 510 L 125 510 C 122.23858 510 120 507.7614 120 505 L 120 345 C 120 342.23858 122.23858 340 125 340 Z" stroke="#1abc9c" stroke-linecap="butt" stroke-linejoin="round" stroke-width="2"/>
      </g>
      <g id="Graphic_14">
        <title>Text</title>
        <text transform="translate(237.10156 351.1289)" fill="black">
          <tspan font-family="Arial" font-size="16" fill="black" x="0" y="14" xml:space="preserve">MPartner</tspan>
        </text>
      </g>
      <g id="Graphic_15">
        <path d="M 145 380 L 255 380 C 257.76142 380 260 382.23858 260 385 L 260 415 C 260 417.7614 257.76142 420 255 420 L 145 420 C 142.23858 420 140 417.7614 140 415 L 140 385 C 140 382.23858 142.23858 380 145 380 Z" fill="#e8f8f5"/>
        <path d="M 145 380 L 255 380 C 257.76142 380 260 382.23858 260 385 L 260 415 C 260 417.7614 257.76142 420 255 420 L 145 420 C 142.23858 420 140 417.7614 140 415 L 140 385 C 140 382.23858 142.23858 380 145 380 Z" stroke="#1abc9c" stroke-linecap="butt" stroke-linejoin="round" stroke-width="1"/>
      </g>
      <g id="Graphic_16">
        <title>Text</title>
        <text transform="translate(177.32422 393.3467)" fill="black">
          <tspan font-family="Arial" font-size="12" fill="black" x="0" y="11" xml:space="preserve">Partners</tspan>
        </text>
      </g>
      <g id="Graphic_17">
        <path d="M 285 380 L 395 380 C 397.76142 380 400 382.23858 400 385 L 400 415 C 400 417.7614 397.76142 420 395 420 L 285 420 C 282.23858 420 280 417.7614 280 415 L 280 385 C 280 382.23858 282.23858 380 285 380 Z" fill="#e8f8f5"/>
        <path d="M 285 380 L 395 380 C 397.76142 380 400 382.23858 400 385 L 400 415 C 400 417.7614 397.76142 420 395 420 L 285 420 C 282.23858 420 280 417.7614 280 415 L 280 385 C 280 382.23858 282.23858 380 285 380 Z" stroke="#1abc9c" stroke-linecap="butt" stroke-linejoin="round" stroke-width="1"/>
      </g>
      <g id="Graphic_18">
        <title>Text</title>
        <text transform="translate(302.98047 393.3467)" fill="black">
          <tspan font-family="Arial" font-size="12" fill="black" x="0" y="11" xml:space="preserve">Organizations</tspan>
        </text>
      </g>
      <g id="Graphic_19">
        <path d="M 145 440 L 255 440 C 257.76142 440 260 442.2386 260 445 L 260 475 C 260 477.7614 257.76142 480 255 480 L 145 480 C 142.23858 480 140 477.7614 140 475 L 140 445 C 140 442.2386 142.23858 440 145 440 Z" fill="#e8f8f5"/>
        <path d="M 145 440 L 255 440 C 257.76142 440 260 442.2386 260 445 L 260 475 C 260 477.7614 257.76142 480 255 480 L 145 480 C 142.23858 480 140 477.7614 140 475 L 140 445 C 140 442.2386 142.23858 440 145 440 Z" stroke="#1abc9c" stroke-linecap="butt" stroke-linejoin="round" stroke-width="1"/>
      </g>
      <g id="Graphic_20">
        <title>Text</title>
        <text transform="translate(177.98926 453.3467)" fill="black">
          <tspan font-family="Arial" font-size="12" fill="black" x="0" y="11" xml:space="preserve">Persons</tspan>
        </text>
      </g>
      <g id="Graphic_21">
        <path d="M 285 440 L 395 440 C 397.76142 440 400 442.2386 400 445 L 400 475 C 400 477.7614 397.76142 480 395 480 L 285 480 C 282.23858 480 280 477.7614 280 475 L 280 445 C 280 442.2386 282.23858 440 285 440 Z" fill="#e8f8f5"/>
        <path d="M 285 440 L 395 440 C 397.76142 440 400 442.2386 400 445 L 400 475 C 400 477.7614 397.76142 480 395 480 L 285 480 C 282.23858 480 280 477.7614 280 475 L 280 445 C 280 442.2386 282.23858 440 285 440 Z" stroke="#1abc9c" stroke-linecap="butt" stroke-linejoin="round" stroke-width="1"/>
      </g>
      <g id="Graphic_22">
        <title>Text</title>
        <text transform="translate(317.66406 453.3467)" fill="black">
          <tspan font-family="Arial" font-size="12" fill="black" x="0" y="11" xml:space="preserve">Families</tspan>
        </text>
      </g>
      <g id="Graphic_23">
        <path d="M 445 340 L 735 340 C 737.7614 340 740 342.23858 740 345 L 740 505 C 740 507.7614 737.7614 510 735 510 L 445 510 C 442.2386 510 440 507.7614 440 505 L 440 345 C 440 342.23858 442.2386 340 445 340 Z" fill="#d1f2eb"/>
        <path d="M 445 340 L 735 340 C 737.7614 340 740 342.23858 740 345 L 740 505 C 740 507.7614 737.7614 510 735 510 L 445 510 C 442.2386 510 440 507.7614 440 505 L 440 345 C 440 342.23858 442.2386 340 445 340 Z" stroke="#1abc9c" stroke-linecap="butt" stroke-linejoin="round" stroke-width="2"/>
      </g>
      <g id="Graphic_24">
        <title>Text</title>
        <text transform="translate(554.875 351.1289)" fill="black">
          <tspan font-family="Arial" font-size="16" fill="black" x="0" y="14" xml:space="preserve">MFinance</tspan>
        </text>
      </g>
      <g id="Graphic_25">
        <path d="M 465 380 L 575 380 C 577.7614 380 580 382.23858 580 385 L 580 415 C 580 417.7614 577.7614 420 575 420 L 465 420 C 462.2386 420 460 417.7614 460 415 L 460 385 C 460 382.23858 462.2386 380 465 380 Z" fill="#e8f8f5"/>
        <path d="M 465 380 L 575 380 C 577.7614 380 580 382.23858 580 385 L 580 415 C 580 417.7614 577.7614 420 575 420 L 465 420 C 462.2386 420 460 417.7614 460 415 L 460 385 C 460 382.23858 462.2386 380 465 380 Z" stroke="#1abc9c" stroke-linecap="butt" stroke-linejoin="round" stroke-width="1"/>
      </g>
      <g id="Graphic_26">
        <title>Text</title>
        <text transform="translate(490.3135 393.3467)" fill="black">
          <tspan font-family="Arial" font-size="12" fill="black" x="0" y="11" xml:space="preserve">Accounting</tspan>
        </text>
      </g>
      <g id="Graphic_27">
        <path d="M 605 380 L 715 380 C 717.7614 380 720 382.23858 720 385 L 720 415 C 720 417.7614 717.7614 420 715 420 L 605 420 C 602.2386 420 600 417.7614 600 415 L 600 385 C 600 382.23858 602.2386 380 605 380 Z" fill="#e8f8f5"/>
        <path d="M 605 380 L 715 380 C 717.7614 380 720 382.23858 720 385 L 720 415 C 720 417.7614 717.7614 420 715 420 L 605 420 C 602.2386 420 600 417.7614 600 415 L 600 385 C 600 382.23858 602.2386 380 605 380 Z" stroke="#1abc9c" stroke-linecap="butt" stroke-linejoin="round" stroke-width="1"/>
      </g>
      <g id="Graphic_28">
        <title>Text</title>
        <text transform="translate(619.31836 393.3467)" fill="black">
          <tspan font-family="Arial" font-size="12" fill="black" x="0" y="11" xml:space="preserve">Gift Processing</tspan>
        </text>
      </g>
      <g id="Graphic_29">
        <path d="M 465 440 L 575 440 C 577.7614 440 580 442.2386 580 445 L 580 475 C 580 477.7614 577.7614 480 575 480 L 465 480 C 462.2386 480 460 477.7614 460 475 L 460 445 C 460 442.2386 462.2386 440 465 440 Z" fill="#e8f8f5"/>
        <path d="M 465 440 L 575 440 C 577.7614 440 580 442.2386 580 445 L 580 475 C 580 477.7614 577.7614 480 575 480 L 465 480 C 462.2386 480 460 477.7614 460 475 L 460 445 C 460 442.2386 462.2386 440 465 440 Z" stroke="#1abc9c" stroke-linecap="butt" stroke-linejoin="round" stroke-width="1"/>
      </g>
      <g id="Graphic_30">
        <title>Text</title>
        <text transform="translate(498.3174 453.3467)" fill="black">
          <tspan font-family="Arial" font-size="12" fill="black" x="0" y="11" xml:space="preserve">Banking</tspan>
        </text>
      </g>
      <g id="Graphic_31">
        <path d="M 605 440 L 715 440 C 717.7614 440 720 442.2386 720 445 L 720 475 C 720 477.7614 717.7614 480 715 480 L 605 480 C 602.2386 480 600 477.7614 600 475 L 600 445 C 600 442.2386 602.2386 440 605 440 Z" fill="#e8f8f5"/>
        <path d="M 605 440 L 715 440 C 717.7614 440 720 442.2386 720 445 L 720 475 C 720 477.7614 717.7614 480 715 480 L 605 480 C 602.2386 480 600 477.7614 600 475 L 600 445 C 600 442.2386 602.2386 440 605 440 Z" stroke="#1abc9c" stroke-linecap="butt" stroke-linejoin="round" stroke-width="1"/>
      </g>
      <g id="Graphic_32">
        <title>Text</title>
        <text transform="translate(649.667 453.3467)" fill="black">
          <tspan font-family="Arial" font-size="12" fill="black" x="0" y="11" xml:space="preserve">ICH</tspan>
        </text>
      </g>
      <g id="Graphic_33">
        <path d="M 765 340 L 1055 340 C 1057.7614 340 1060 342.23858 1060 345 L 1060 505 C 1060 507.7614 1057.7614 510 1055 510 L 765 510 C 762.2386 510 760 507.7614 760 505 L 760 345 C 760 342.23858 762.2386 340 765 340 Z" fill="#d1f2eb"/>
        <path d="M 765 340 L 1055 340 C 1057.7614 340 1060 342.23858 1060 345 L 1060 505 C 1060 507.7614 1057.7614 510 1055 510 L 765 510 C 762.2386 510 760 507.7614 760 505 L 760 345 C 760 342.23858 762.2386 340 765 340 Z" stroke="#1abc9c" stroke-linecap="butt" stroke-linejoin="round" stroke-width="2"/>
      </g>
      <g id="Graphic_34">
        <title>Text</title>
        <text transform="translate(867.3125 351.1289)" fill="black">
          <tspan font-family="Arial" font-size="16" fill="black" x="0" y="14" xml:space="preserve">MPersonnel</tspan>
        </text>
      </g>
      <g id="Graphic_35">
        <path d="M 785 380 L 895 380 C 897.7614 380 900 382.23858 900 385 L 900 415 C 900 417.7614 897.7614 420 895 420 L 785 420 C 782.2386 420 780 417.7614 780 415 L 780 385 C 780 382.23858 782.2386 380 785 380 Z" fill="#e8f8f5"/>
        <path d="M 785 380 L 895 380 C 897.7614 380 900 382.23858 900 385 L 900 415 C 900 417.7614 897.7614 420 895 420 L 785 420 C 782.2386 420 780 417.7614 780 415 L 780 385 C 780 382.23858 782.2386 380 785 380 Z" stroke="#1abc9c" stroke-linecap="butt" stroke-linejoin="round" stroke-width="1"/>
      </g>
      <g id="Graphic_36">
        <title>Text</title>
        <text transform="translate(791.0801 393.3467)" fill="black">
          <tspan font-family="Arial" font-size="12" fill="black" x="0" y="11" xml:space="preserve">Staff Management</tspan>
        </text>
      </g>
      <g id="Graphic_37">
        <path d="M 925 380 L 1035 380 C 1037.7614 380 1040 382.23858 1040 385 L 1040 415 C 1040 417.7614 1037.7614 420 1035 420 L 925 420 C 922.2386 420 920 417.7614 920 415 L 920 385 C 920 382.23858 922.2386 380 925 380 Z" fill="#e8f8f5"/>
        <path d="M 925 380 L 1035 380 C 1037.7614 380 1040 382.23858 1040 385 L 1040 415 C 1040 417.7614 1037.7614 420 1035 420 L 925 420 C 922.2386 420 920 417.7614 920 415 L 920 385 C 920 382.23858 922.2386 380 925 380 Z" stroke="#1abc9c" stroke-linecap="butt" stroke-linejoin="round" stroke-width="1"/>
      </g>
      <g id="Graphic_38">
        <title>Text</title>
        <text transform="translate(951.6465 393.3467)" fill="black">
          <tspan font-family="Arial" font-size="12" fill="black" x="0" y="11" xml:space="preserve">Volunteers</tspan>
        </text>
      </g>
      <g id="Graphic_39">
        <path d="M 785 440 L 895 440 C 897.7614 440 900 442.2386 900 445 L 900 475 C 900 477.7614 897.7614 480 895 480 L 785 480 C 782.2386 480 780 477.7614 780 475 L 780 445 C 780 442.2386 782.2386 440 785 440 Z" fill="#e8f8f5"/>
        <path d="M 785 440 L 895 440 C 897.7614 440 900 442.2386 900 445 L 900 475 C 900 477.7614 897.7614 480 895 480 L 785 480 C 782.2386 480 780 477.7614 780 475 L 780 445 C 780 442.2386 782.2386 440 785 440 Z" stroke="#1abc9c" stroke-linecap="butt" stroke-linejoin="round" stroke-width="1"/>
      </g>
      <g id="Graphic_40">
        <title>Text</title>
        <text transform="translate(798.6416 453.3467)" fill="black">
          <tspan font-family="Arial" font-size="12" fill="black" x="0" y="11" xml:space="preserve">Personnel Data</tspan>
        </text>
      </g>
      <g id="Graphic_41">
        <path d="M 925 440 L 1035 440 C 1037.7614 440 1040 442.2386 1040 445 L 1040 475 C 1040 477.7614 1037.7614 480 1035 480 L 925 480 C 922.2386 480 920 477.7614 920 475 L 920 445 C 920 442.2386 922.2386 440 925 440 Z" fill="#e8f8f5"/>
        <path d="M 925 440 L 1035 440 C 1037.7614 440 1040 442.2386 1040 445 L 1040 475 C 1040 477.7614 1037.7614 480 1035 480 L 925 480 C 922.2386 480 920 477.7614 920 475 L 920 445 C 920 442.2386 922.2386 440 925 440 Z" stroke="#1abc9c" stroke-linecap="butt" stroke-linejoin="round" stroke-width="1"/>
      </g>
      <g id="Graphic_42">
        <title>Text</title>
        <text transform="translate(933.3154 453.3467)" fill="black">
          <tspan font-family="Arial" font-size="12" fill="black" x="0" y="11" xml:space="preserve">Progress Reports</tspan>
        </text>
      </g>
      <g id="Graphic_43">
        <path d="M 125 530 L 415 530 C 417.7614 530 420 532.2386 420 535 L 420 695 C 420 697.7614 417.7614 700 415 700 L 125 700 C 122.23858 700 120 697.7614 120 695 L 120 535 C 120 532.2386 122.23858 530 125 530 Z" fill="#d1f2eb"/>
        <path d="M 125 530 L 415 530 C 417.7614 530 420 532.2386 420 535 L 420 695 C 420 697.7614 417.7614 700 415 700 L 125 700 C 122.23858 700 120 697.7614 120 695 L 120 535 C 120 532.2386 122.23858 530 125 530 Z" stroke="#1abc9c" stroke-linecap="butt" stroke-linejoin="round" stroke-width="2"/>
      </g>
      <g id="Graphic_44">
        <title>Text</title>
        <text transform="translate(221.97656 541.1289)" fill="black">
          <tspan font-family="Arial" font-size="16" fill="black" x="0" y="14" xml:space="preserve">MConference</tspan>
        </text>
      </g>
      <g id="Graphic_45">
        <path d="M 145 570 L 255 570 C 257.76142 570 260 572.2386 260 575 L 260 605 C 260 607.7614 257.76142 610 255 610 L 145 610 C 142.23858 610 140 607.7614 140 605 L 140 575 C 140 572.2386 142.23858 570 145 570 Z" fill="#e8f8f5"/>
        <path d="M 145 570 L 255 570 C 257.76142 570 260 572.2386 260 575 L 260 605 C 260 607.7614 257.76142 610 255 610 L 145 610 C 142.23858 610 140 607.7614 140 605 L 140 575 C 140 572.2386 142.23858 570 145 570 Z" stroke="#1abc9c" stroke-linecap="butt" stroke-linejoin="round" stroke-width="1"/>
      </g>
      <g id="Graphic_46">
        <title>Text</title>
        <text transform="translate(147.96875 583.3467)" fill="black">
          <tspan font-family="Arial" font-size="12" fill="black" x="0" y="11" xml:space="preserve">Event Management</tspan>
        </text>
      </g>
      <g id="Graphic_47">
        <path d="M 285 570 L 395 570 C 397.76142 570 400 572.2386 400 575 L 400 605 C 400 607.7614 397.76142 610 395 610 L 285 610 C 282.23858 610 280 607.7614 280 605 L 280 575 C 280 572.2386 282.23858 570 285 570 Z" fill="#e8f8f5"/>
        <path d="M 285 570 L 395 570 C 397.76142 570 400 572.2386 400 575 L 400 605 C 400 607.7614 397.76142 610 395 610 L 285 610 C 282.23858 610 280 607.7614 280 605 L 280 575 C 280 572.2386 282.23858 570 285 570 Z" stroke="#1abc9c" stroke-linecap="butt" stroke-linejoin="round" stroke-width="1"/>
      </g>
      <g id="Graphic_48">
        <title>Text</title>
        <text transform="translate(307.98438 583.3467)" fill="black">
          <tspan font-family="Arial" font-size="12" fill="black" x="0" y="11" xml:space="preserve">Registration</tspan>
        </text>
      </g>
      <g id="Graphic_49">
        <path d="M 145 630 L 255 630 C 257.76142 630 260 632.2386 260 635 L 260 665 C 260 667.7614 257.76142 670 255 670 L 145 670 C 142.23858 670 140 667.7614 140 665 L 140 635 C 140 632.2386 142.23858 630 145 630 Z" fill="#e8f8f5"/>
        <path d="M 145 630 L 255 630 C 257.76142 630 260 632.2386 260 635 L 260 665 C 260 667.7614 257.76142 670 255 670 L 145 670 C 142.23858 670 140 667.7614 140 665 L 140 635 C 140 632.2386 142.23858 630 145 630 Z" stroke="#1abc9c" stroke-linecap="butt" stroke-linejoin="round" stroke-width="1"/>
      </g>
      <g id="Graphic_50">
        <title>Text</title>
        <text transform="translate(153.98047 643.3467)" fill="black">
          <tspan font-family="Arial" font-size="12" fill="black" x="0" y="11" xml:space="preserve">Accommodations</tspan>
        </text>
      </g>
      <g id="Graphic_51">
        <path d="M 285 630 L 395 630 C 397.76142 630 400 632.2386 400 635 L 400 665 C 400 667.7614 397.76142 670 395 670 L 285 670 C 282.23858 670 280 667.7614 280 665 L 280 635 C 280 632.2386 282.23858 630 285 630 Z" fill="#e8f8f5"/>
        <path d="M 285 630 L 395 630 C 397.76142 630 400 632.2386 400 635 L 400 665 C 400 667.7614 397.76142 670 395 670 L 285 670 C 282.23858 670 280 667.7614 280 665 L 280 635 C 280 632.2386 282.23858 630 285 630 Z" stroke="#1abc9c" stroke-linecap="butt" stroke-linejoin="round" stroke-width="1"/>
      </g>
      <g id="Graphic_52">
        <title>Text</title>
        <text transform="translate(301.53613 643.3467)" fill="black">
          <tspan font-family="Arial" font-size="12" fill="black" x="0" y="11" xml:space="preserve">Transportation</tspan>
        </text>
      </g>
      <g id="Graphic_53">
        <path d="M 445 530 L 735 530 C 737.7614 530 740 532.2386 740 535 L 740 695 C 740 697.7614 737.7614 700 735 700 L 445 700 C 442.2386 700 440 697.7614 440 695 L 440 535 C 440 532.2386 442.2386 530 445 530 Z" fill="#d1f2eb"/>
        <path d="M 445 530 L 735 530 C 737.7614 530 740 532.2386 740 535 L 740 695 C 740 697.7614 737.7614 700 735 700 L 445 700 C 442.2386 700 440 697.7614 440 695 L 440 535 C 440 532.2386 442.2386 530 445 530 Z" stroke="#1abc9c" stroke-linecap="butt" stroke-linejoin="round" stroke-width="2"/>
      </g>
      <g id="Graphic_54">
        <title>Text</title>
        <text transform="translate(538.8633 541.1289)" fill="black">
          <tspan font-family="Arial" font-size="16" fill="black" x="0" y="14" xml:space="preserve">MSponsorship</tspan>
        </text>
      </g>
      <g id="Graphic_55">
        <path d="M 465 570 L 575 570 C 577.7614 570 580 572.2386 580 575 L 580 605 C 580 607.7614 577.7614 610 575 610 L 465 610 C 462.2386 610 460 607.7614 460 605 L 460 575 C 460 572.2386 462.2386 570 465 570 Z" fill="#e8f8f5"/>
        <path d="M 465 570 L 575 570 C 577.7614 570 580 572.2386 580 575 L 580 605 C 580 607.7614 577.7614 610 575 610 L 465 610 C 462.2386 610 460 607.7614 460 605 L 460 575 C 460 572.2386 462.2386 570 465 570 Z" stroke="#1abc9c" stroke-linecap="butt" stroke-linejoin="round" stroke-width="1"/>
      </g>
      <g id="Graphic_56">
        <title>Text</title>
        <text transform="translate(460.3047 583.3467)" fill="black">
          <tspan font-family="Arial" font-size="12" fill="black" x="0" y="11" xml:space="preserve">Program Management</tspan>
        </text>
      </g>
      <g id="Graphic_57">
        <path d="M 605 570 L 715 570 C 717.7614 570 720 572.2386 720 575 L 720 605 C 720 607.7614 717.7614 610 715 610 L 605 610 C 602.2386 610 600 607.7614 600 605 L 600 575 C 600 572.2386 602.2386 570 605 570 Z" fill="#e8f8f5"/>
        <path d="M 605 570 L 715 570 C 717.7614 570 720 572.2386 720 575 L 720 605 C 720 607.7614 717.7614 610 715 610 L 605 610 C 602.2386 610 600 607.7614 600 605 L 600 575 C 600 572.2386 602.2386 570 605 570 Z" stroke="#1abc9c" stroke-linecap="butt" stroke-linejoin="round" stroke-width="1"/>
      </g>
      <g id="Graphic_58">
        <title>Text</title>
        <text transform="translate(607.3096 583.3467)" fill="black">
          <tspan font-family="Arial" font-size="12" fill="black" x="0" y="11" xml:space="preserve">Participant Tracking</tspan>
        </text>
      </g>
      <g id="Graphic_59">
        <path d="M 465 630 L 575 630 C 577.7614 630 580 632.2386 580 635 L 580 665 C 580 667.7614 577.7614 670 575 670 L 465 670 C 462.2386 670 460 667.7614 460 665 L 460 635 C 460 632.2386 462.2386 630 465 630 Z" fill="#e8f8f5"/>
        <path d="M 465 630 L 575 630 C 577.7614 630 580 632.2386 580 635 L 580 665 C 580 667.7614 577.7614 670 575 670 L 465 670 C 462.2386 670 460 667.7614 460 665 L 460 635 C 460 632.2386 462.2386 630 465 630 Z" stroke="#1abc9c" stroke-linecap="butt" stroke-linejoin="round" stroke-width="1"/>
      </g>
      <g id="Graphic_60">
        <title>Text</title>
        <text transform="translate(469.63867 643.3467)" fill="black">
          <tspan font-family="Arial" font-size="12" fill="black" x="0" y="11" xml:space="preserve">Child Management</tspan>
        </text>
      </g>
      <g id="Graphic_61">
        <path d="M 605 630 L 715 630 C 717.7614 630 720 632.2386 720 635 L 720 665 C 720 667.7614 717.7614 670 715 670 L 605 670 C 602.2386 670 600 667.7614 600 665 L 600 635 C 600 632.2386 602.2386 630 605 630 Z" fill="#e8f8f5"/>
        <path d="M 605 630 L 715 630 C 717.7614 630 720 632.2386 720 635 L 720 665 C 720 667.7614 717.7614 670 715 670 L 605 670 C 602.2386 670 600 667.7614 600 665 L 600 635 C 600 632.2386 602.2386 630 605 630 Z" stroke="#1abc9c" stroke-linecap="butt" stroke-linejoin="round" stroke-width="1"/>
      </g>
      <g id="Graphic_62">
        <title>Text</title>
        <text transform="translate(606.9697 643.3467)" fill="black">
          <tspan font-family="Arial" font-size="12" fill="black" x="0" y="11" xml:space="preserve">Donor Management</tspan>
        </text>
      </g>
      <g id="Graphic_63">
        <path d="M 765 530 L 1055 530 C 1057.7614 530 1060 532.2386 1060 535 L 1060 695 C 1060 697.7614 1057.7614 700 1055 700 L 765 700 C 762.2386 700 760 697.7614 760 695 L 760 535 C 760 532.2386 762.2386 530 765 530 Z" fill="#d1f2eb"/>
        <path d="M 765 530 L 1055 530 C 1057.7614 530 1060 532.2386 1060 535 L 1060 695 C 1060 697.7614 1057.7614 700 1055 700 L 765 700 C 762.2386 700 760 697.7614 760 695 L 760 535 C 760 532.2386 762.2386 530 765 530 Z" stroke="#1abc9c" stroke-linecap="butt" stroke-linejoin="round" stroke-width="2"/>
      </g>
      <g id="Graphic_64">
        <title>Text</title>
        <text transform="translate(874.4375 541.1289)" fill="black">
          <tspan font-family="Arial" font-size="16" fill="black" x="0" y="14" xml:space="preserve">MSysMan</tspan>
        </text>
      </g>
      <g id="Graphic_65">
        <path d="M 785 570 L 895 570 C 897.7614 570 900 572.2386 900 575 L 900 605 C 900 607.7614 897.7614 610 895 610 L 785 610 C 782.2386 610 780 607.7614 780 605 L 780 575 C 780 572.2386 782.2386 570 785 570 Z" fill="#e8f8f5"/>
        <path d="M 785 570 L 895 570 C 897.7614 570 900 572.2386 900 575 L 900 605 C 900 607.7614 897.7614 610 895 610 L 785 610 C 782.2386 610 780 607.7614 780 605 L 780 575 C 780 572.2386 782.2386 570 785 570 Z" stroke="#1abc9c" stroke-linecap="butt" stroke-linejoin="round" stroke-width="1"/>
      </g>
      <g id="Graphic_66">
        <title>Text</title>
        <text transform="translate(790.6436 583.3467)" fill="black">
          <tspan font-family="Arial" font-size="12" fill="black" x="0" y="11" xml:space="preserve">User Management</tspan>
        </text>
      </g>
      <g id="Graphic_67">
        <path d="M 925 570 L 1035 570 C 1037.7614 570 1040 572.2386 1040 575 L 1040 605 C 1040 607.7614 1037.7614 610 1035 610 L 925 610 C 922.2386 610 920 607.7614 920 605 L 920 575 C 920 572.2386 922.2386 570 925 570 Z" fill="#e8f8f5"/>
        <path d="M 925 570 L 1035 570 C 1037.7614 570 1040 572.2386 1040 575 L 1040 605 C 1040 607.7614 1037.7614 610 1035 610 L 925 610 C 922.2386 610 920 607.7614 920 605 L 920 575 C 920 572.2386 922.2386 570 925 570 Z" stroke="#1abc9c" stroke-linecap="butt" stroke-linejoin="round" stroke-width="1"/>
      </g>
      <g id="Graphic_68">
        <title>Text</title>
        <text transform="translate(939.6523 583.3467)" fill="black">
          <tspan font-family="Arial" font-size="12" fill="black" x="0" y="11" xml:space="preserve">Access Control</tspan>
        </text>
      </g>
      <g id="Graphic_69">
        <path d="M 785 630 L 895 630 C 897.7614 630 900 632.2386 900 635 L 900 665 C 900 667.7614 897.7614 670 895 670 L 785 670 C 782.2386 670 780 667.7614 780 665 L 780 635 C 780 632.2386 782.2386 630 785 630 Z" fill="#e8f8f5"/>
        <path d="M 785 630 L 895 630 C 897.7614 630 900 632.2386 900 635 L 900 665 C 900 667.7614 897.7614 670 895 670 L 785 670 C 782.2386 670 780 667.7614 780 665 L 780 635 C 780 632.2386 782.2386 630 785 630 Z" stroke="#1abc9c" stroke-linecap="butt" stroke-linejoin="round" stroke-width="1"/>
      </g>
      <g id="Graphic_70">
        <title>Text</title>
        <text transform="translate(796.6494 643.3467)" fill="black">
          <tspan font-family="Arial" font-size="12" fill="black" x="0" y="11" xml:space="preserve">System Settings</tspan>
        </text>
      </g>
      <g id="Graphic_71">
        <path d="M 925 630 L 1035 630 C 1037.7614 630 1040 632.2386 1040 635 L 1040 665 C 1040 667.7614 1037.7614 670 1035 670 L 925 670 C 922.2386 670 920 667.7614 920 665 L 920 635 C 920 632.2386 922.2386 630 925 630 Z" fill="#e8f8f5"/>
        <path d="M 925 630 L 1035 630 C 1037.7614 630 1040 632.2386 1040 635 L 1040 665 C 1040 667.7614 1037.7614 670 1035 670 L 925 670 C 922.2386 670 920 667.7614 920 665 L 920 635 C 920 632.2386 922.2386 630 925 630 Z" stroke="#1abc9c" stroke-linecap="butt" stroke-linejoin="round" stroke-width="1"/>
      </g>
      <g id="Graphic_72">
        <title>Text</title>
        <text transform="translate(943.9824 643.3467)" fill="black">
          <tspan font-family="Arial" font-size="12" fill="black" x="0" y="11" xml:space="preserve">DB Upgrades</tspan>
        </text>
      </g>
      <g id="Graphic_73">
        <path d="M 125 720 L 420 720 C 422.7614 720 425 722.2386 425 725 L 425 755 C 425 757.7614 422.7614 760 420 760 L 125 760 C 122.23858 760 120 757.7614 120 755 L 120 725 C 120 722.2386 122.23858 720 125 720 Z" fill="#f5eef8"/>
        <path d="M 125 720 L 420 720 C 422.7614 720 425 722.2386 425 725 L 425 755 C 425 757.7614 422.7614 760 420 760 L 125 760 C 122.23858 760 120 757.7614 120 755 L 120 725 C 120 722.2386 122.23858 720 125 720 Z" stroke="#9b59b6" stroke-linecap="butt" stroke-linejoin="round" stroke-width="2"/>
      </g>
      <g id="Graphic_74">
        <title>Text</title>
        <text transform="translate(199.35889 731.7378)" fill="black">
          <tspan font-family="Arial" font-size="14" fill="black" x="0" y="13" xml:space="preserve">Reporting (MReporting)</tspan>
        </text>
      </g>
      <g id="Graphic_77">
        <path d="M 775 720 L 1075 720 C 1077.7614 720 1080 722.2386 1080 725 L 1080 755 C 1080 757.7614 1077.7614 760 1075 760 L 775 760 C 772.2386 760 770 757.7614 770 755 L 770 725 C 770 722.2386 772.2386 720 775 720 Z" fill="#f5eef8"/>
        <path d="M 775 720 L 1075 720 C 1077.7614 720 1080 722.2386 1080 725 L 1080 755 C 1080 757.7614 1077.7614 760 1075 760 L 775 760 C 772.2386 760 770 757.7614 770 755 L 770 725 C 770 722.2386 772.2386 720 775 720 Z" stroke="#9b59b6" stroke-linecap="butt" stroke-linejoin="round" stroke-width="2"/>
      </g>
      <g id="Graphic_78">
        <title>Text</title>
        <text transform="translate(826.9829 731.7378)" fill="black">
          <tspan font-family="Arial" font-size="14" fill="black" x="0" y="13" xml:space="preserve">Common Services (MCommon)</tspan>
        </text>
      </g>
      <g id="Graphic_79">
        <path d="M 105 780 L 1095 780 C 1097.7614 780 1100 782.2386 1100 785 L 1100 845 C 1100 847.7614 1097.7614 850 1095 850 L 105 850 C 102.23858 850 100 847.7614 100 845 L 100 785 C 100 782.2386 102.23858 780 105 780 Z" fill="#fadbd8"/>
        <path d="M 105 780 L 1095 780 C 1097.7614 780 1100 782.2386 1100 785 L 1100 845 C 1100 847.7614 1097.7614 850 1095 850 L 105 850 C 102.23858 850 100 847.7614 100 845 L 100 785 C 100 782.2386 102.23858 780 105 780 Z" stroke="#e74c3c" stroke-linecap="butt" stroke-linejoin="round" stroke-width="2"/>
      </g>
      <g id="Graphic_80">
        <title>Text</title>
        <text transform="translate(520.2832 819.6392)" fill="black">
          <tspan font-family="Arial" font-weight="bold" font-size="18" fill="black" x="0" y="16" xml:space="preserve">Data Access Layer</tspan>
        </text>
      </g>
      <g id="Graphic_81">
        <title>Text</title>
        <text transform="translate(429.604 791.7378)" fill="black">
          <tspan font-family="Arial" font-size="14" fill="black" x="0" y="13" xml:space="preserve">(ORM, Database Abstraction, RDBMS Implementation)</tspan>
        </text>
      </g>
      <g id="Graphic_82">
        <path d="M 30.960938 380 L 95 380 C 97.76142 380 100 382.23858 100 385 L 100 655 C 100 657.7614 97.76142 660 95 660 L 30.960938 660 C 28.199514 660 25.960938 657.7614 25.960938 655 L 25.960938 385 C 25.960938 382.23858 28.199514 380 30.960938 380 Z" fill="#eaeded"/>
        <path d="M 30.960938 380 L 95 380 C 97.76142 380 100 382.23858 100 385 L 100 655 C 100 657.7614 97.76142 660 95 660 L 30.960938 660 C 28.199514 660 25.960938 657.7614 25.960938 655 L 25.960938 385 C 25.960938 382.23858 28.199514 380 30.960938 380 Z" stroke="#95a5a6" stroke-linecap="butt" stroke-linejoin="round" stroke-width="2"/>
      </g>
      <g id="Graphic_83">
        <title>Text</title>
        <text transform="translate(25.731934 582.6411) rotate(-90)" fill="black">
          <tspan font-family="Arial" font-size="14" fill="black" x="0" y="13" xml:space="preserve">Processing Patterns</tspan>
        </text>
      </g>
      <g id="Graphic_84">
        <path d="M 47 400 L 83 400 C 84.10457 400 85 400.89543 85 402 L 85 438 C 85 439.10457 84.10457 440 83 440 L 47 440 C 45.89543 440 45 439.10457 45 438 L 45 402 C 45 400.89543 45.89543 400 47 400 Z" fill="#d6dbdf"/>
        <path d="M 47 400 L 83 400 C 84.10457 400 85 400.89543 85 402 L 85 438 C 85 439.10457 84.10457 440 83 440 L 47 440 C 45.89543 440 45 439.10457 45 438 L 45 402 C 45 400.89543 45.89543 400 47 400 Z" stroke="#95a5a6" stroke-linecap="butt" stroke-linejoin="round" stroke-width="1"/>
      </g>
      <g id="Graphic_85">
        <title>Text</title>
        <text transform="translate(43.410645 415.95557)" fill="black">
          <tspan font-family="Arial" font-size="10" fill="black" x="0" y="9" xml:space="preserve">Validation</tspan>
        </text>
      </g>
      <g id="Graphic_86">
        <path d="M 47 460 L 83 460 C 84.10457 460 85 460.89543 85 462 L 85 498 C 85 499.10457 84.10457 500 83 500 L 47 500 C 45.89543 500 45 499.10457 45 498 L 45 462 C 45 460.89543 45.89543 460 47 460 Z" fill="#d6dbdf"/>
        <path d="M 47 460 L 83 460 C 84.10457 460 85 460.89543 85 462 L 85 498 C 85 499.10457 84.10457 500 83 500 L 47 500 C 45.89543 500 45 499.10457 45 498 L 45 462 C 45 460.89543 45.89543 460 47 460 Z" stroke="#95a5a6" stroke-linecap="butt" stroke-linejoin="round" stroke-width="1"/>
      </g>
      <g id="Graphic_87">
        <title>Text</title>
        <text transform="translate(54.80957 475.95557)" fill="black">
          <tspan font-family="Arial" font-size="10" fill="black" x="0" y="9" xml:space="preserve">Web</tspan>
        </text>
      </g>
      <g id="Graphic_88">
        <path d="M 47 520 L 83 520 C 84.10457 520 85 520.8954 85 522 L 85 558 C 85 559.1046 84.10457 560 83 560 L 47 560 C 45.89543 560 45 559.1046 45 558 L 45 522 C 45 520.8954 45.89543 520 47 520 Z" fill="#d6dbdf"/>
        <path d="M 47 520 L 83 520 C 84.10457 520 85 520.8954 85 522 L 85 558 C 85 559.1046 84.10457 560 83 560 L 47 560 C 45.89543 560 45 559.1046 45 558 L 45 522 C 45 520.8954 45.89543 520 47 520 Z" stroke="#95a5a6" stroke-linecap="butt" stroke-linejoin="round" stroke-width="1"/>
      </g>
      <g id="Graphic_89">
        <title>Text</title>
        <text transform="translate(47.492676 535.95557)" fill="black">
          <tspan font-family="Arial" font-size="10" fill="black" x="0" y="9" xml:space="preserve">Queries</tspan>
        </text>
      </g>
      <g id="Graphic_90">
        <path d="M 47 580 L 83 580 C 84.10457 580 85 580.8954 85 582 L 85 618 C 85 619.1046 84.10457 620 83 620 L 47 620 C 45.89543 620 45 619.1046 45 618 L 45 582 C 45 580.8954 45.89543 580 47 580 Z" fill="#d6dbdf"/>
        <path d="M 47 580 L 83 580 C 84.10457 580 85 580.8954 85 582 L 85 618 C 85 619.1046 84.10457 620 83 620 L 47 620 C 45.89543 620 45 619.1046 45 618 L 45 582 C 45 580.8954 45.89543 580 47 580 Z" stroke="#95a5a6" stroke-linecap="butt" stroke-linejoin="round" stroke-width="1"/>
      </g>
      <g id="Graphic_91">
        <title>Text</title>
        <text transform="translate(46.376953 595.9556)" fill="black">
          <tspan font-family="Arial" font-size="10" fill="black" x="0" y="9" xml:space="preserve">Connect</tspan>
        </text>
      </g>
      <g id="Graphic_92">
        <path d="M 1105 380 L 1169.039 380 C 1171.8005 380 1174.039 382.23858 1174.039 385 L 1174.039 655 C 1174.039 657.7614 1171.8005 660 1169.039 660 L 1105 660 C 1102.2386 660 1100 657.7614 1100 655 L 1100 385 C 1100 382.23858 1102.2386 380 1105 380 Z" fill="#eaeded"/>
        <path d="M 1105 380 L 1169.039 380 C 1171.8005 380 1174.039 382.23858 1174.039 385 L 1174.039 655 C 1174.039 657.7614 1171.8005 660 1169.039 660 L 1105 660 C 1102.2386 660 1100 657.7614 1100 655 L 1100 385 C 1100 382.23858 1102.2386 380 1105 380 Z" stroke="#95a5a6" stroke-linecap="butt" stroke-linejoin="round" stroke-width="2"/>
      </g>
      <g id="Graphic_93">
        <title>Text</title>
        <text transform="translate(1156.1699 590.40674) rotate(-90)" fill="black">
          <tspan font-family="Arial" font-size="14" fill="black" x="0" y="13" xml:space="preserve">Service Infrastructure</tspan>
        </text>
      </g>
      <g id="Graphic_94">
        <path d="M 1117 400 L 1153 400 C 1154.1046 400 1155 400.89543 1155 402 L 1155 438 C 1155 439.10457 1154.1046 440 1153 440 L 1117 440 C 1115.8954 440 1115 439.10457 1115 438 L 1115 402 C 1115 400.89543 1115.8954 400 1117 400 Z" fill="#d6dbdf"/>
        <path d="M 1117 400 L 1153 400 C 1154.1046 400 1155 400.89543 1155 402 L 1155 438 C 1155 439.10457 1154.1046 440 1153 440 L 1117 440 C 1115.8954 440 1115 439.10457 1115 438 L 1115 402 C 1115 400.89543 1115.8954 400 1117 400 Z" stroke="#95a5a6" stroke-linecap="butt" stroke-linejoin="round" stroke-width="1"/>
      </g>
      <g id="Graphic_95">
        <title>Text</title>
        <text transform="translate(1121.665 415.95557)" fill="black">
          <tspan font-family="Arial" font-size="10" fill="black" x="0" y="9" xml:space="preserve">REST</tspan>
        </text>
      </g>
      <g id="Graphic_96">
        <path d="M 1117 460 L 1153 460 C 1154.1046 460 1155 460.89543 1155 462 L 1155 498 C 1155 499.10457 1154.1046 500 1153 500 L 1117 500 C 1115.8954 500 1115 499.10457 1115 498 L 1115 462 C 1115 460.89543 1115.8954 460 1117 460 Z" fill="#d6dbdf"/>
        <path d="M 1117 460 L 1153 460 C 1154.1046 460 1155 460.89543 1155 462 L 1155 498 C 1155 499.10457 1154.1046 500 1153 500 L 1117 500 C 1115.8954 500 1115 499.10457 1115 498 L 1115 462 C 1115 460.89543 1115.8954 460 1117 460 Z" stroke="#95a5a6" stroke-linecap="butt" stroke-linejoin="round" stroke-width="1"/>
      </g>
      <g id="Graphic_97">
        <title>Text</title>
        <text transform="translate(1121.106 475.95557)" fill="black">
          <tspan font-family="Arial" font-size="10" fill="black" x="0" y="9" xml:space="preserve">SOAP</tspan>
        </text>
      </g>
      <g id="Graphic_98">
        <path d="M 1117 520 L 1153 520 C 1154.1046 520 1155 520.8954 1155 522 L 1155 558 C 1155 559.1046 1154.1046 560 1153 560 L 1117 560 C 1115.8954 560 1115 559.1046 1115 558 L 1115 522 C 1115 520.8954 1115.8954 520 1117 520 Z" fill="#d6dbdf"/>
        <path d="M 1117 520 L 1153 520 C 1154.1046 520 1155 520.8954 1155 522 L 1155 558 C 1155 559.1046 1154.1046 560 1153 560 L 1117 560 C 1115.8954 560 1115 559.1046 1115 558 L 1115 522 C 1115 520.8954 1115.8954 520 1117 520 Z" stroke="#95a5a6" stroke-linecap="butt" stroke-linejoin="round" stroke-width="1"/>
      </g>
      <g id="Graphic_99">
        <title>Text</title>
        <text transform="translate(1113.6011 535.95557)" fill="black">
          <tspan font-family="Arial" font-size="10" fill="black" x="0" y="9" xml:space="preserve">Remoting</tspan>
        </text>
      </g>
      <g id="Graphic_100">
        <path d="M 1117 580 L 1153 580 C 1154.1046 580 1155 580.8954 1155 582 L 1155 618 C 1155 619.1046 1154.1046 620 1153 620 L 1117 620 C 1115.8954 620 1115 619.1046 1115 618 L 1115 582 C 1115 580.8954 1115.8954 580 1117 580 Z" fill="#d6dbdf"/>
        <path d="M 1117 580 L 1153 580 C 1154.1046 580 1155 580.8954 1155 582 L 1155 618 C 1155 619.1046 1154.1046 620 1153 620 L 1117 620 C 1115.8954 620 1115 619.1046 1115 618 L 1115 582 C 1115 580.8954 1115.8954 580 1117 580 Z" stroke="#95a5a6" stroke-linecap="butt" stroke-linejoin="round" stroke-width="1"/>
      </g>
      <g id="Graphic_101">
        <title>Text</title>
        <text transform="translate(1124.7144 595.9556)" fill="black">
          <tspan font-family="Arial" font-size="10" fill="black" x="0" y="9" xml:space="preserve">Auth</tspan>
        </text>
      </g>
      <g id="Graphic_102">
        <line x1="600" y1="150" x2="600" y2="220" stroke="#3498db" stroke-linecap="butt" stroke-linejoin="round" stroke-width="2"/>
      </g>
      <g id="Graphic_103">
        <title>Text</title>
        <rect x="558.1455" y="186" width="84.70898" height="14" fill="white"/>
        <text transform="translate(558.1455 185.8037)" fill="black">
          <tspan font-family="Arial" font-size="12" fill="black" x="0" y="11" xml:space="preserve">Client Requests</tspan>
        </text>
      </g>
      <g id="Graphic_104">
        <line x1="600" y1="320" x2="600" y2="340" stroke="#ff9800" stroke-linecap="butt" stroke-linejoin="round" stroke-width="2"/>
      </g>
      <g id="Graphic_105">
        <title>Text</title>
        <text transform="translate(620 323.34668)" fill="black">
          <tspan font-family="Arial" font-size="12" fill="black" x="0" y="11" xml:space="preserve">Dispatch Events</tspan>
        </text>
      </g>
      <g id="Graphic_106">
        <line x1="600" y1="700" x2="600" y2="780" stroke="#e74c3c" stroke-linecap="butt" stroke-linejoin="round" stroke-width="2"/>
      </g>
      <g id="Graphic_107">
        <title>Text</title>
        <text transform="translate(613.3008 702.8037)" fill="black">
          <tspan font-family="Arial" font-size="12" fill="black" x="0" y="11" xml:space="preserve">Data Operations</tspan>
        </text>
      </g>
      <g id="Graphic_108">
        <line x1="120" y1="520" x2="90" y2="520" stroke="#95a5a6" stroke-linecap="butt" stroke-linejoin="round" stroke-dasharray="6.0,6.0" stroke-width="1.5"/>
      </g>
      <g id="Graphic_109">
        <line x1="1060" y1="520" x2="1100" y2="520" stroke="#95a5a6" stroke-linecap="butt" stroke-linejoin="round" stroke-dasharray="6.0,6.0" stroke-width="1.5"/>
      </g>
      <g id="Graphic_110">
        <path d="M 212 867.6289 L 308 867.6289 C 309.10457 867.6289 310 868.5243 310 869.6289 L 310 887.6289 C 310 888.7335 309.10457 889.6289 308 889.6289 L 212 889.6289 C 210.89543 889.6289 210 888.7335 210 887.6289 L 210 869.6289 C 210 868.5243 210.89543 867.6289 212 867.6289 Z" fill="#e2f0fb"/>
        <path d="M 212 867.6289 L 308 867.6289 C 309.10457 867.6289 310 868.5243 310 869.6289 L 310 887.6289 C 310 888.7335 309.10457 889.6289 308 889.6289 L 212 889.6289 C 210.89543 889.6289 210 888.7335 210 887.6289 L 210 869.6289 C 210 868.5243 210.89543 867.6289 212 867.6289 Z" stroke="#3498db" stroke-linecap="butt" stroke-linejoin="round" stroke-width="1"/>
      </g>
      <g id="Graphic_111">
        <title>Text</title>
        <text transform="translate(227.98438 870.9756)" fill="black">
          <tspan font-family="Arial" font-size="12" fill="black" x="0" y="11" xml:space="preserve">Client Layer</tspan>
        </text>
      </g>
      <g id="Graphic_112">
        <path d="M 322 867.6289 L 438 867.6289 C 439.10457 867.6289 440 868.5243 440 869.6289 L 440 887.6289 C 440 888.7335 439.10457 889.6289 438 889.6289 L 322 889.6289 C 320.89543 889.6289 320 888.7335 320 887.6289 L 320 869.6289 C 320 868.5243 320.89543 867.6289 322 867.6289 Z" fill="#ffe0b2"/>
        <path d="M 322 867.6289 L 438 867.6289 C 439.10457 867.6289 440 868.5243 440 869.6289 L 440 887.6289 C 440 888.7335 439.10457 889.6289 438 889.6289 L 322 889.6289 C 320.89543 889.6289 320 888.7335 320 887.6289 L 320 869.6289 C 320 868.5243 320.89543 867.6289 322 867.6289 Z" stroke="#ff9800" stroke-linecap="butt" stroke-linejoin="round" stroke-width="1"/>
      </g>
      <g id="Graphic_113">
        <title>Text</title>
        <text transform="translate(327.64355 870.9756)" fill="black">
          <tspan font-family="Arial" font-size="12" fill="black" x="0" y="11" xml:space="preserve">Event Infrastructure</tspan>
        </text>
      </g>
      <g id="Graphic_114">
        <path d="M 452 867.6289 L 578 867.6289 C 579.1046 867.6289 580 868.5243 580 869.6289 L 580 887.6289 C 580 888.7335 579.1046 889.6289 578 889.6289 L 452 889.6289 C 450.89543 889.6289 450 888.7335 450 887.6289 L 450 869.6289 C 450 868.5243 450.89543 867.6289 452 867.6289 Z" fill="#d1f2eb"/>
        <path d="M 452 867.6289 L 578 867.6289 C 579.1046 867.6289 580 868.5243 580 869.6289 L 580 887.6289 C 580 888.7335 579.1046 889.6289 578 889.6289 L 452 889.6289 C 450.89543 889.6289 450 888.7335 450 887.6289 L 450 869.6289 C 450 868.5243 450.89543 867.6289 452 867.6289 Z" stroke="#1abc9c" stroke-linecap="butt" stroke-linejoin="round" stroke-width="1"/>
      </g>
      <g id="Graphic_115">
        <title>Text</title>
        <text transform="translate(466.3086 870.9756)" fill="black">
          <tspan font-family="Arial" font-size="12" fill="black" x="0" y="11" xml:space="preserve">Business Modules</tspan>
        </text>
      </g>
      <g id="Graphic_116">
        <path d="M 592 867.6289 L 728 867.6289 C 729.1046 867.6289 730 868.5243 730 869.6289 L 730 887.6289 C 730 888.7335 729.1046 889.6289 728 889.6289 L 592 889.6289 C 590.8954 889.6289 590 888.7335 590 887.6289 L 590 869.6289 C 590 868.5243 590.8954 867.6289 592 867.6289 Z" fill="#f5eef8"/>
        <path d="M 592 867.6289 L 728 867.6289 C 729.1046 867.6289 730 868.5243 730 869.6289 L 730 887.6289 C 730 888.7335 729.1046 889.6289 728 889.6289 L 592 889.6289 C 590.8954 889.6289 590 888.7335 590 887.6289 L 590 869.6289 C 590 868.5243 590.8954 867.6289 592 867.6289 Z" stroke="#9b59b6" stroke-linecap="butt" stroke-linejoin="round" stroke-width="1"/>
      </g>
      <g id="Graphic_117">
        <title>Text</title>
        <text transform="translate(598.97754 870.9756)" fill="black">
          <tspan font-family="Arial" font-size="12" fill="black" x="0" y="11" xml:space="preserve">Cross-Cutting Modules</tspan>
        </text>
      </g>
      <g id="Graphic_118">
        <path d="M 742 867.6289 L 858 867.6289 C 859.1046 867.6289 860 868.5243 860 869.6289 L 860 887.6289 C 860 888.7335 859.1046 889.6289 858 889.6289 L 742 889.6289 C 740.8954 889.6289 740 888.7335 740 887.6289 L 740 869.6289 C 740 868.5243 740.8954 867.6289 742 867.6289 Z" fill="#fadbd8"/>
        <path d="M 742 867.6289 L 858 867.6289 C 859.1046 867.6289 860 868.5243 860 869.6289 L 860 887.6289 C 860 888.7335 859.1046 889.6289 858 889.6289 L 742 889.6289 C 740.8954 889.6289 740 888.7335 740 887.6289 L 740 869.6289 C 740 868.5243 740.8954 867.6289 742 867.6289 Z" stroke="#e74c3c" stroke-linecap="butt" stroke-linejoin="round" stroke-width="1"/>
      </g>
      <g id="Graphic_119">
        <title>Text</title>
        <text transform="translate(749.9756 870.9756)" fill="black">
          <tspan font-family="Arial" font-size="12" fill="black" x="0" y="11" xml:space="preserve">Data Access Layer</tspan>
        </text>
      </g>
      <g id="Graphic_120">
        <path d="M 872 867.6289 L 988 867.6289 C 989.1046 867.6289 990 868.5243 990 869.6289 L 990 887.6289 C 990 888.7335 989.1046 889.6289 988 889.6289 L 872 889.6289 C 870.8954 889.6289 870 888.7335 870 887.6289 L 870 869.6289 C 870 868.5243 870.8954 867.6289 872 867.6289 Z" fill="#eaeded"/>
        <path d="M 872 867.6289 L 988 867.6289 C 989.1046 867.6289 990 868.5243 990 869.6289 L 990 887.6289 C 990 888.7335 989.1046 889.6289 988 889.6289 L 872 889.6289 C 870.8954 889.6289 870 888.7335 870 887.6289 L 870 869.6289 C 870 868.5243 870.8954 867.6289 872 867.6289 Z" stroke="#95a5a6" stroke-linecap="butt" stroke-linejoin="round" stroke-width="1"/>
      </g>
      <g id="Graphic_121">
        <title>Text</title>
        <text transform="translate(876.3047 870.9756)" fill="black">
          <tspan font-family="Arial" font-size="12" fill="black" x="0" y="11" xml:space="preserve">Supporting Services</tspan>
        </text>
      </g>
      <g id="Graphic_75">
        <path d="M 450 720 L 745 720 C 747.7614 720 750 722.2386 750 725 L 750 755 C 750 757.7614 747.7614 760 745 760 L 450 760 C 447.2386 760 445 757.7614 445 755 L 445 725 C 445 722.2386 447.2386 720 450 720 Z" fill="#f5eef8"/>
        <path d="M 450 720 L 745 720 C 747.7614 720 750 722.2386 750 725 L 750 755 C 750 757.7614 747.7614 760 745 760 L 450 760 C 447.2386 760 445 757.7614 445 755 L 445 725 C 445 722.2386 447.2386 720 450 720 Z" stroke="#9b59b6" stroke-linecap="butt" stroke-linejoin="round" stroke-width="2"/>
      </g>
      <g id="Graphic_76">
        <title>Text</title>
        <text transform="translate(520.4829 731.7378)" fill="black">
          <tspan font-family="Arial" font-size="14" fill="black" x="0" y="13" xml:space="preserve">Hospitality (MHospitality)</tspan>
        </text>
      </g>
    </g>
  </g>
</svg>
